<?xml version="1.0" encoding="UTF-8"?>
<svg width="48" height="48" viewBox="0 0 48 48" fill="none" xmlns="http://www.w3.org/2000/svg">
    <!-- Main circle representing the hive/network -->
    <circle cx="24" cy="24" r="22" stroke="currentColor" stroke-width="2" fill="none"/>
    
    <!-- Hexagonal pattern representing the hive structure -->
    <path d="M24 14L31 18V26L24 30L17 26V18L24 14Z" 
          stroke="currentColor" 
          stroke-width="2" 
          fill="none"/>
    
    <!-- Connected nodes representing the mind/network -->
    <circle cx="24" cy="14" r="2" fill="currentColor"/>
    <circle cx="31" cy="18" r="2" fill="currentColor"/>
    <circle cx="31" cy="26" r="2" fill="currentColor"/>
    <circle cx="24" cy="30" r="2" fill="currentColor"/>
    <circle cx="17" cy="26" r="2" fill="currentColor"/>
    <circle cx="17" cy="18" r="2" fill="currentColor"/>
    
    <!-- Central node -->
    <circle cx="24" cy="22" r="3" fill="currentColor"/>
    
    <!-- Connecting lines -->
    <line x1="24" y1="14" x2="24" y2="22" stroke="currentColor" stroke-width="1"/>
    <line x1="31" y1="18" x2="24" y2="22" stroke="currentColor" stroke-width="1"/>
    <line x1="31" y1="26" x2="24" y2="22" stroke="currentColor" stroke-width="1"/>
    <line x1="24" y1="30" x2="24" y2="22" stroke="currentColor" stroke-width="1"/>
    <line x1="17" y1="26" x2="24" y2="22" stroke="currentColor" stroke-width="1"/>
    <line x1="17" y1="18" x2="24" y2="22" stroke="currentColor" stroke-width="1"/>
</svg>
